%FSLAX25Y25*%
%MOIN*%
G70*
G01*
G75*
G04 Layer_Physical_Order=1*
G04 Layer_Color=255*
%ADD10C,0.06000*%
%ADD11C,0.01000*%
%ADD12R,0.05622X0.05622*%
%ADD13C,0.05622*%
%ADD14C,0.11024*%
%ADD15C,0.05906*%
%ADD16R,0.05906X0.05906*%
%ADD17R,0.05906X0.05906*%
D10*
X315000Y325000D02*
X325500Y335500D01*
X296536Y325000D02*
X315000D01*
X325500Y335500D02*
Y346500D01*
Y356500D02*
X343500D01*
Y300000D02*
Y356500D01*
X340720Y297220D02*
X343500Y300000D01*
X296315Y297220D02*
X340720D01*
X389500Y326000D02*
Y350000D01*
X319000Y384500D02*
X326000Y377500D01*
X319000Y384500D02*
Y400000D01*
X326000Y407000D01*
Y417000D02*
X330000D01*
X333000Y414000D01*
Y394500D02*
Y414000D01*
X326000Y387500D02*
X333000Y394500D01*
X385000Y391500D02*
X389500D01*
X382500Y389000D02*
X385000Y391500D01*
X382500Y367000D02*
Y389000D01*
Y367000D02*
X389500Y360000D01*
Y381500D02*
X396500Y374500D01*
Y357000D02*
Y374500D01*
X389500Y350000D02*
X396500Y357000D01*
X382000Y418000D02*
X385000Y421000D01*
X382000Y399000D02*
Y418000D01*
Y399000D02*
X389500Y391500D01*
Y381500D02*
X396500Y388500D01*
X389000Y411000D02*
X396500Y403500D01*
X389500Y326000D02*
X396500Y333000D01*
X390000Y433500D02*
X396500Y427000D01*
X359500Y433500D02*
X390000D01*
X347500Y421500D02*
X359500Y433500D01*
X382500Y323000D02*
X389500Y316000D01*
X382500Y323000D02*
Y357500D01*
X385000Y360000D01*
X389500D01*
X357500Y421500D02*
X373800Y421000D01*
X385000D01*
X389000D01*
X396500Y333000D02*
Y357000D01*
Y374500D02*
Y388500D01*
Y403500D01*
Y427000D01*
D11*
X328500Y441500D02*
Y445499D01*
X330499Y447498D01*
X332499Y445499D01*
Y441500D01*
Y444499D01*
X328500D01*
X334498Y447498D02*
Y441500D01*
X338497D01*
X340496Y447498D02*
X342495D01*
X341496D01*
Y441500D01*
X340496D01*
X342495D01*
X355491D02*
X351493D01*
X355491Y445499D01*
Y446498D01*
X354492Y447498D01*
X352492D01*
X351493Y446498D01*
X361489Y441500D02*
X357491D01*
X361489Y445499D01*
Y446498D01*
X360490Y447498D01*
X358490D01*
X357491Y446498D01*
X363489D02*
X364488Y447498D01*
X366488D01*
X367487Y446498D01*
Y442500D01*
X366488Y441500D01*
X364488D01*
X363489Y442500D01*
Y446498D01*
X369487Y447498D02*
Y443499D01*
X371486Y441500D01*
X373485Y443499D01*
Y447498D01*
X385482D02*
X381483D01*
Y441500D01*
X385482D01*
X381483Y444499D02*
X383482D01*
X387481Y441500D02*
Y447498D01*
X391480Y441500D01*
Y447498D01*
X393479D02*
X397478D01*
X395478D01*
Y441500D01*
X410999Y417498D02*
X407000D01*
Y411500D01*
X410999D01*
X407000Y414499D02*
X408999D01*
X412998Y417498D02*
Y413499D01*
X414997Y411500D01*
X416997Y413499D01*
Y417498D01*
X410000Y384000D02*
Y389998D01*
X412999D01*
X413999Y388998D01*
Y386999D01*
X412999Y385999D01*
X410000D01*
X411999D02*
X413999Y384000D01*
X419997Y389998D02*
X415998D01*
Y384000D01*
X419997D01*
X415998Y386999D02*
X417997D01*
X408000Y357998D02*
Y352000D01*
X411999D01*
X413998Y357998D02*
Y352000D01*
X417997D01*
X406000Y318000D02*
Y323998D01*
X408999D01*
X409999Y322998D01*
Y320999D01*
X408999Y319999D01*
X406000D01*
X415997Y322998D02*
X414997Y323998D01*
X412998D01*
X411998Y322998D01*
Y319000D01*
X412998Y318000D01*
X414997D01*
X415997Y319000D01*
X421995Y318000D02*
X417996D01*
X421995Y321999D01*
Y322998D01*
X420995Y323998D01*
X418996D01*
X417996Y322998D01*
X427993Y318000D02*
X423994D01*
X427993Y321999D01*
Y322998D01*
X426993Y323998D01*
X424994D01*
X423994Y322998D01*
X429992D02*
X430992Y323998D01*
X432991D01*
X433991Y322998D01*
Y319000D01*
X432991Y318000D01*
X430992D01*
X429992Y319000D01*
Y322998D01*
X439989Y323998D02*
X435990D01*
Y318000D01*
X439989D01*
X435990Y320999D02*
X437990D01*
X441988Y318000D02*
Y323998D01*
X445987Y318000D01*
Y323998D01*
X447986D02*
X451985D01*
X449986D01*
Y318000D01*
X264000Y267500D02*
Y273498D01*
X266999D01*
X267999Y272498D01*
Y270499D01*
X266999Y269499D01*
X264000D01*
X273997Y272498D02*
X272997Y273498D01*
X270998D01*
X269998Y272498D01*
Y268500D01*
X270998Y267500D01*
X272997D01*
X273997Y268500D01*
X275996Y267500D02*
X277995D01*
X276996D01*
Y273498D01*
X275996Y272498D01*
X284993Y267500D02*
X280995D01*
X284993Y271499D01*
Y272498D01*
X283994Y273498D01*
X281994D01*
X280995Y272498D01*
X290991D02*
X289992Y273498D01*
X287992D01*
X286993Y272498D01*
Y271499D01*
X287992Y270499D01*
X289992D01*
X290991Y269499D01*
Y268500D01*
X289992Y267500D01*
X287992D01*
X286993Y268500D01*
X295990Y273498D02*
X293990D01*
X292991Y272498D01*
Y268500D01*
X293990Y267500D01*
X295990D01*
X296989Y268500D01*
Y272498D01*
X295990Y273498D01*
X298989Y267500D02*
Y273498D01*
X301988D01*
X302987Y272498D01*
Y270499D01*
X301988Y269499D01*
X298989D01*
X300988D02*
X302987Y267500D01*
X272998Y348500D02*
Y354498D01*
X275997D01*
X276997Y353498D01*
Y351499D01*
X275997Y350499D01*
X272998D01*
X282995Y353498D02*
X281995Y354498D01*
X279996D01*
X278996Y353498D01*
Y349500D01*
X279996Y348500D01*
X281995D01*
X282995Y349500D01*
X284994Y348500D02*
X286994D01*
X285994D01*
Y354498D01*
X284994Y353498D01*
X293991Y348500D02*
X289993D01*
X293991Y352499D01*
Y353498D01*
X292992Y354498D01*
X290992D01*
X289993Y353498D01*
X299989Y354498D02*
X295991D01*
Y348500D01*
X299989D01*
X295991Y351499D02*
X297990D01*
X301989Y348500D02*
Y354498D01*
X305987Y348500D01*
Y354498D01*
X307987D02*
X311985D01*
X309986D01*
Y348500D01*
X276000Y376500D02*
Y382498D01*
X278999D01*
X279999Y381498D01*
Y379499D01*
X278999Y378499D01*
X276000D01*
X285997Y381498D02*
X284997Y382498D01*
X282998D01*
X281998Y381498D01*
Y377500D01*
X282998Y376500D01*
X284997D01*
X285997Y377500D01*
X291995Y382498D02*
X287996D01*
Y379499D01*
X289996Y380499D01*
X290995D01*
X291995Y379499D01*
Y377500D01*
X290995Y376500D01*
X288996D01*
X287996Y377500D01*
X297993Y381498D02*
X296993Y382498D01*
X294994D01*
X293994Y381498D01*
Y380499D01*
X294994Y379499D01*
X296993D01*
X297993Y378499D01*
Y377500D01*
X296993Y376500D01*
X294994D01*
X293994Y377500D01*
X302991Y382498D02*
X300992D01*
X299992Y381498D01*
Y377500D01*
X300992Y376500D01*
X302991D01*
X303991Y377500D01*
Y381498D01*
X302991Y382498D01*
X305990Y376500D02*
Y382498D01*
X308989D01*
X309989Y381498D01*
Y379499D01*
X308989Y378499D01*
X305990D01*
X307990D02*
X309989Y376500D01*
X275500Y409500D02*
Y415498D01*
X278499D01*
X279499Y414498D01*
Y412499D01*
X278499Y411499D01*
X275500D01*
X285497Y414498D02*
X284497Y415498D01*
X282498D01*
X281498Y414498D01*
Y410500D01*
X282498Y409500D01*
X284497D01*
X285497Y410500D01*
X291495Y415498D02*
X287496D01*
Y412499D01*
X289495Y413499D01*
X290495D01*
X291495Y412499D01*
Y410500D01*
X290495Y409500D01*
X288496D01*
X287496Y410500D01*
X297493Y415498D02*
X293494D01*
Y409500D01*
X297493D01*
X293494Y412499D02*
X295494D01*
X299492Y409500D02*
Y415498D01*
X303491Y409500D01*
Y415498D01*
X305490D02*
X309489D01*
X307490D01*
Y409500D01*
D12*
X296315Y324779D02*
D03*
D13*
Y314937D02*
D03*
Y307063D02*
D03*
Y297220D02*
D03*
D14*
X285685Y336866D02*
D03*
Y285134D02*
D03*
D15*
X326000Y417000D02*
D03*
X389500Y326000D02*
D03*
X326000Y387500D02*
D03*
X389500Y360000D02*
D03*
Y391500D02*
D03*
X325500Y356500D02*
D03*
X389000Y421000D02*
D03*
X357500Y421500D02*
D03*
D16*
X326000Y407000D02*
D03*
X389500Y316000D02*
D03*
X326000Y377500D02*
D03*
X389500Y350000D02*
D03*
Y381500D02*
D03*
X325500Y346500D02*
D03*
X389000Y411000D02*
D03*
D17*
X347500Y421500D02*
D03*
M02*
